<svg viewBox="0 0 60 60" xmlns="http://www.w3.org/2000/svg" xmlns:xlink="http://www.w3.org/1999/xlink">
  <path d="M24.167 54.74c-.157 0-.313-.053-.521-.105l-6.615-2.708c-.52-.208-.833-.781-.781-1.354l.52-5.26L15 43.124H8.958c-.52 0-.99-.313-1.198-.781l-2.24-5.365a1.29 1.29 0 0 1 .365-1.458l4.22-3.75v-3.386l-4.272-3.437c-.468-.365-.625-.99-.364-1.51l2.396-5.834a1.26 1.26 0 0 1 1.302-.781l5.416.417 2.344-2.188V8.958c0-.52.313-.99.833-1.198l5.99-2.395a1.37 1.37 0 0 1 1.51.364l3.542 4.375h2.76l3.698-4.323a1.29 1.29 0 0 1 1.459-.364l5.468 2.187c.47.208.834.677.834 1.198v6.094l2.24 2.135 5.364-.729c.573-.104 1.146.26 1.406.781l2.604 6.25c.209.573.053 1.198-.416 1.563l-4.48 3.281v3.438l4.48 3.854c.416.364.573.99.364 1.458l-2.24 5.365a1.316 1.316 0 0 1-1.197.78h-6.042l-2.083 2.084.677 5.365c.052.573-.26 1.146-.781 1.354l-6.25 2.604a1.309 1.309 0 0 1-1.51-.416L31.978 50h-3.698l-3.073 4.167c-.208.364-.625.573-1.041.573zm-5.209-4.844l4.74 1.979 2.864-3.906c.26-.313.625-.521 1.042-.521h5c.417 0 .781.208 1.042.52l2.969 3.803 4.375-1.823-.625-5c-.053-.417.104-.781.364-1.094l2.917-2.916c.26-.26.573-.365.937-.365h5.625l1.51-3.698-4.218-3.646a1.283 1.283 0 0 1-.469-.99v-4.687c0-.417.209-.833.521-1.042l4.219-3.02-1.823-4.427-5 .677c-.417.052-.781-.052-1.094-.365l-3.073-2.969c-.26-.26-.416-.573-.416-.937v-5.73l-3.803-1.51-3.437 4.063c-.26.312-.625.468-.99.468h-3.958c-.417 0-.781-.156-.99-.468L23.75 8.125l-4.27 1.719v5.677c0 .364-.157.729-.418.937l-3.177 2.97c-.26.26-.625.364-.99.364l-5-.365L8.23 23.49l4.01 3.229c.313.26.47.625.47.99v4.583c0 .364-.157.729-.417.99l-4.01 3.54 1.51 3.699h5.885c.417 0 .781.156.99.469l2.5 3.072c.208.26.312.626.26.938l-.469 4.896z" />
  <path d="M30 42.135c-6.719 0-12.135-5.468-12.135-12.135S23.28 17.865 30 17.865c2.76 0 5.365.885 7.5 2.604.469.364.52.99.156 1.458-.364.469-.99.52-1.458.156-1.77-1.406-3.958-2.135-6.25-2.135-5.573 0-10.052 4.531-10.052 10.052 0 5.573 4.531 10.052 10.052 10.052C35.52 40.052 40 35.521 40 30c0-.26 0-.52-.052-.833a1.05 1.05 0 0 1 .937-1.146 1.05 1.05 0 0 1 1.146.937c0 .313.052.625.052.99A12.049 12.049 0 0 1 30 42.135z" />
</svg>