<?xml version="1.0" encoding="utf-8"?><!-- Uploaded to: SVG Repo, www.svgrepo.com, Generator: SVG Repo Mixer Tools -->
<svg width="800px" height="800px" viewBox="0 0 24 24" fill="none" xmlns="http://www.w3.org/2000/svg">
<path d="M7.05029 11.2929L4.92897 13.4142C3.7574 14.5858 3.7574 16.4853 4.92897 17.6568L6.34319 19.0711C7.51476 20.2426 9.41425 20.2426 10.5858 19.0711L12.7071 16.9497M5.00004 5L19 19" stroke="#000000" stroke-width="2" stroke-linecap="round" stroke-linejoin="round"/>
<path fill-rule="evenodd" clip-rule="evenodd" d="M11.8358 10.75L9.17156 13.4142C8.78103 13.8048 8.78103 14.4379 9.17156 14.8284C9.56208 15.219 10.1952 15.219 10.5858 14.8284L13.25 12.1642L11.8358 10.75ZM17.4926 13.5785L16.0784 12.1643L16.2426 12L17.6568 10.5858L18.3639 9.87872C19.145 9.09767 19.145 7.83134 18.3639 7.05029L16.9497 5.63608C16.1687 4.85503 14.9024 4.85503 14.1213 5.63608L13.4142 6.34319L12 7.7574L11.8358 7.92161L10.4216 6.5074L10.5858 6.34319L12 4.92897L12.7071 4.22187C14.2692 2.65977 16.8019 2.65977 18.3639 4.22187L19.7782 5.63608C21.3403 7.19818 21.3403 9.73084 19.7782 11.2929L19.0711 12L17.6568 13.4143L17.4926 13.5785ZM13.25 9.33581L13.4142 9.1716C13.8047 8.78107 14.4379 8.78107 14.8284 9.1716C15.2189 9.56212 15.2189 10.1953 14.8284 10.5858L14.6642 10.75L13.25 9.33581Z" fill="#000000"/>
</svg>